<svg width="25" height="25" viewBox="0 0 25 25" fill="none" xmlns="http://www.w3.org/2000/svg">
<g clip-path="url(#clip0_1_6313)">
<path d="M12.4999 22.9166C6.74679 22.9166 2.08325 18.2531 2.08325 12.5C2.08325 6.74686 6.74679 2.08331 12.4999 2.08331C18.253 2.08331 22.9166 6.74686 22.9166 12.5C22.9166 18.2531 18.253 22.9166 12.4999 22.9166ZM7.30513 19.0166C8.77966 20.1955 10.6121 20.8363 12.4999 20.8333C14.552 20.8333 16.4301 20.0916 17.8822 18.8625C17.2038 18.1664 16.3927 17.6134 15.4968 17.2362C14.601 16.8591 13.6386 16.6654 12.6666 16.6666C11.6589 16.6655 10.6619 16.8738 9.73894 17.2783C8.81599 17.6829 7.98719 18.2748 7.30513 19.0166ZM5.84992 17.5208C6.72539 16.5917 7.78187 15.8518 8.95423 15.3466C10.1266 14.8414 11.39 14.5816 12.6666 14.5833C13.8975 14.5817 15.1166 14.8233 16.2538 15.2941C17.3911 15.765 18.4241 16.4558 19.2937 17.3271C20.1854 16.072 20.712 14.5944 20.8151 13.0582C20.9181 11.5221 20.5936 9.98736 19.8775 8.62441C19.1614 7.26146 18.0817 6.12355 16.7582 5.3369C15.4347 4.55026 13.9192 4.14564 12.3797 4.16795C10.8403 4.19026 9.33706 4.63861 8.03692 5.46327C6.73677 6.28793 5.6905 7.45665 5.01418 8.83977C4.33786 10.2229 4.05793 11.7663 4.20546 13.2989C4.35298 14.8314 4.92218 16.2931 5.84992 17.5219V17.5208ZM12.4999 13.5416C11.3948 13.5416 10.335 13.1027 9.55364 12.3213C8.77224 11.5399 8.33325 10.48 8.33325 9.37498C8.33325 8.26991 8.77224 7.2101 9.55364 6.4287C10.335 5.6473 11.3948 5.20831 12.4999 5.20831C13.605 5.20831 14.6648 5.6473 15.4462 6.4287C16.2276 7.2101 16.6666 8.26991 16.6666 9.37498C16.6666 10.48 16.2276 11.5399 15.4462 12.3213C14.6648 13.1027 13.605 13.5416 12.4999 13.5416ZM12.4999 11.4583C13.0525 11.4583 13.5824 11.2388 13.9731 10.8481C14.3638 10.4574 14.5833 9.92751 14.5833 9.37498C14.5833 8.82244 14.3638 8.29254 13.9731 7.90184C13.5824 7.51114 13.0525 7.29165 12.4999 7.29165C11.9474 7.29165 11.4175 7.51114 11.0268 7.90184C10.6361 8.29254 10.4166 8.82244 10.4166 9.37498C10.4166 9.92751 10.6361 10.4574 11.0268 10.8481C11.4175 11.2388 11.9474 11.4583 12.4999 11.4583Z" fill="black"/>
</g>
<defs>
<clipPath id="clip0_1_6313">
<rect width="25" height="25" fill="white"/>
</clipPath>
</defs>
</svg>
