<svg width="25" height="25" viewBox="0 0 25 25" fill="none" xmlns="http://www.w3.org/2000/svg">
<g clip-path="url(#clip0_1_6310)">
<path d="M21.875 20.8333C21.875 21.1096 21.7653 21.3745 21.5699 21.5699C21.3746 21.7652 21.1096 21.875 20.8333 21.875H4.16667C3.8904 21.875 3.62545 21.7652 3.4301 21.5699C3.23475 21.3745 3.125 21.1096 3.125 20.8333V9.88539C3.12489 9.72666 3.16106 9.57 3.23075 9.42737C3.30043 9.28475 3.40179 9.15994 3.52708 9.06248L11.8604 2.58123C12.0433 2.43898 12.2683 2.36176 12.5 2.36176C12.7317 2.36176 12.9567 2.43898 13.1396 2.58123L21.4729 9.06248C21.5982 9.15994 21.6996 9.28475 21.7693 9.42737C21.8389 9.57 21.8751 9.72666 21.875 9.88539V20.8333ZM19.7917 19.7916V10.3937L12.5 4.72289L5.20833 10.3937V19.7916H19.7917Z" fill="#FE522E"/>
</g>
<defs>
<clipPath id="clip0_1_6310">
<rect width="25" height="25" fill="white"/>
</clipPath>
</defs>
</svg>
