<svg width="79" height="84" viewBox="0 0 79 84" fill="none" xmlns="http://www.w3.org/2000/svg">
<path d="M49.2081 35.6567C55.428 29.4808 64.8787 27.5548 72.3194 33.0874C72.5536 33.2742 72.7862 33.4635 73.0167 33.6548C73.148 33.7627 73.2799 33.8707 73.4151 33.9819C76.3158 36.4496 77.9678 39.7173 78.754 43.3608C78.7848 43.5022 78.816 43.6438 78.8477 43.7895C79.418 48.2025 78.4143 52.5721 75.6661 56.1382C74.2746 57.8098 72.7263 59.3267 71.1759 60.854C70.927 61.0997 70.6776 61.3455 70.4288 61.5913C69.6178 62.3919 68.8061 63.1919 67.9942 63.9917C67.7141 64.2677 67.4335 64.5438 67.1534 64.8198C65.9888 65.9671 64.8237 67.1147 63.6583 68.2612C63.3573 68.5573 63.056 68.8537 62.755 69.1499C62.6802 69.2234 62.6054 69.2968 62.5284 69.3725C61.3121 70.5693 60.0979 71.7682 58.8839 72.9673C57.6356 74.2001 56.3851 75.4307 55.1339 76.6606C54.4321 77.3506 53.7309 78.0417 53.0313 78.7339C52.375 79.3832 51.7164 80.0311 51.0567 80.6772C50.8146 80.915 50.5728 81.1538 50.3321 81.393C50.0046 81.7183 49.6744 82.0415 49.3438 82.3637C49.2482 82.4598 49.1523 82.5557 49.0538 82.6548C48.7852 82.9136 48.7854 82.9139 48.3155 83.2788C47.5952 83.207 47.202 82.7189 46.7179 82.2358C46.6223 82.1423 46.5263 82.0489 46.4278 81.9526C46.1072 81.6384 45.7887 81.3222 45.4698 81.0063C45.2406 80.7811 45.0107 80.5566 44.7813 80.3315C44.1581 79.7195 43.5366 79.1054 42.9151 78.4917C42.2656 77.8507 41.6147 77.2105 40.964 76.5708C39.7315 75.3587 38.4995 74.1458 37.2686 72.9321C35.8675 71.5505 34.4652 70.1696 33.0626 68.7895C30.177 65.9502 27.293 63.1092 24.4102 60.2671C25.0633 59.5033 25.7406 58.781 26.4581 58.0757C26.5639 57.9711 26.6694 57.866 26.7784 57.7583C27.1306 57.4103 27.4833 57.0628 27.836 56.7153C28.0898 56.4648 28.344 56.2139 28.5977 55.9633C29.4289 55.1428 30.2608 54.323 31.0929 53.5034C31.3802 53.2203 31.6678 52.9369 31.9552 52.6538C33.1511 51.4757 34.3473 50.2979 35.544 49.1206C35.8538 48.8158 36.164 48.5112 36.4737 48.2065C36.5506 48.1308 36.6279 48.055 36.7071 47.977C37.9526 46.7516 39.1964 45.524 40.4395 44.2964C41.7198 43.0322 43.0021 41.7696 44.2852 40.5083C45.0041 39.8016 45.722 39.0941 46.4386 38.3852C47.1135 37.7175 47.7906 37.0516 48.4688 36.3872C48.716 36.1444 48.9624 35.9008 49.2081 35.6567ZM31.421 -0.000518799C32.0379 0.0725105 32.3173 0.352799 32.7501 0.778778C32.9562 0.979889 32.9568 0.979854 33.1671 1.18503C33.318 1.33468 33.4693 1.48455 33.6202 1.63425C33.78 1.79108 33.9397 1.94831 34.0997 2.10495C34.5343 2.53105 34.9676 2.95836 35.4005 3.3862C35.8545 3.83455 36.3105 4.28173 36.7657 4.72897C37.5307 5.48096 38.2943 6.23431 39.0577 6.98776C40.035 7.95227 41.014 8.91578 41.9933 9.87839C42.8374 10.7082 43.6811 11.539 44.5245 12.3696C44.7943 12.6353 45.0642 12.9009 45.3341 13.1665C45.7601 13.5857 46.1861 14.0053 46.6114 14.4253C46.8404 14.6512 47.0705 14.8774 47.2999 15.103C48.0111 15.8062 48.6998 16.5182 49.3575 17.27C49.6353 17.5851 49.9271 17.8831 50.2276 18.1772C50.3392 18.2868 50.4506 18.3964 50.5655 18.5092C50.7399 18.6793 50.7402 18.6795 50.9181 18.853C51.1012 19.0326 51.1012 19.033 51.2882 19.2163C51.6741 19.5945 52.0608 19.9724 52.4474 20.3501C52.711 20.6082 52.9748 20.8662 53.2384 21.1245C53.8807 21.7537 54.523 22.3828 55.1661 23.0112C54.9617 23.4515 54.7488 23.7735 54.4015 24.1157C54.31 24.2065 54.2183 24.2975 54.1241 24.3911C53.9736 24.5382 53.974 24.5388 53.8204 24.6889C53.7137 24.7945 53.6061 24.8995 53.4962 25.0083C53.1376 25.3625 52.7778 25.7157 52.4181 26.0688C52.161 26.3222 51.9044 26.576 51.6476 26.8296C50.9482 27.5193 50.2476 28.2085 49.547 28.8969C49.1088 29.3275 48.6703 29.758 48.2325 30.1889C46.7826 31.6159 45.3324 33.0427 43.881 34.4682C43.8028 34.545 43.7242 34.6216 43.6436 34.7007C43.5654 34.7775 43.487 34.8549 43.4063 34.9341C42.1401 36.1777 40.8754 37.4234 39.6114 38.6694C38.3114 39.9509 37.0096 41.2311 35.7071 42.5102C34.9769 43.2275 34.2472 43.9456 33.5186 44.6645C32.832 45.342 32.1435 46.018 31.4542 46.6928C31.2028 46.9395 30.9515 47.1863 30.7013 47.4341C26.9772 51.1186 22.9351 53.4301 17.5265 53.4682C13.4947 53.4264 9.82896 52.2044 6.71884 49.6235C6.52204 49.4617 6.52211 49.4614 6.32138 49.2964C3.42065 46.8287 1.76774 43.561 0.981536 39.9174C0.935392 39.7056 0.935892 39.7051 0.888762 39.4887C0.31853 35.0758 1.32135 30.7061 4.06943 27.1401C5.46092 25.4684 7.01021 23.9516 8.56064 22.4243C8.80929 22.1788 9.05813 21.9335 9.30673 21.688C10.1179 20.8871 10.9301 20.0866 11.7423 19.2866C12.0225 19.0105 12.3029 18.7346 12.5831 18.4585C13.7477 17.3111 14.9128 16.1636 16.0782 15.0171C16.3791 14.721 16.6796 14.4244 16.9806 14.1284C17.0553 14.0549 17.1301 13.9815 17.2071 13.9057C18.4234 12.709 19.6387 11.5109 20.8526 10.312C22.1009 9.07922 23.3505 7.84753 24.6017 6.61765C25.3034 5.92771 26.0047 5.23658 26.7042 4.5444C27.3606 3.89498 28.0191 3.2472 28.6788 2.60104C28.921 2.36319 29.1626 2.12446 29.4034 1.88522C29.7309 1.56002 30.0611 1.2377 30.3917 0.915497C30.4874 0.819314 30.5831 0.722599 30.6817 0.623505C30.9504 0.36464 30.9508 0.364566 31.421 -0.000518799Z" fill="white"/>
</svg>
